<svg width="92" height="70" viewBox="0 0 92 70" fill="none" xmlns="http://www.w3.org/2000/svg">
<path d="M82.5413 48.3026L56.3836 47.5714L53.5155 47.4921C53.4554 47.3826 53.3905 47.2768 53.3256 47.1722C53.3003 47.1301 53.2738 47.0892 53.2462 47.0471C51.7214 44.6949 49.0385 43.1353 45.9852 43.1353C42.9175 43.1353 40.225 44.7106 38.7038 47.0796C38.6822 47.1109 38.6629 47.1409 38.6437 47.1722C38.5836 47.2672 38.5271 47.3622 38.4717 47.4596L35.5736 47.5402L8.40698 48.299L0 48.5335V50.6078L36.6703 49.5833C36.9072 49.9164 37.167 50.2351 37.4484 50.5381C37.642 50.7473 37.8464 50.9506 38.0593 51.1442C40.0543 52.9648 42.8682 54.0988 45.9852 54.0988C49.1022 54.0988 51.9162 52.9648 53.9112 51.1442C54.124 50.9506 54.3285 50.7473 54.5221 50.5381C54.7963 50.2423 55.05 49.932 55.2833 49.6073L91.0758 50.6067V48.5407L82.5413 48.3026ZM52.028 49.154C51.9222 49.2754 51.814 49.3933 51.6997 49.5075C50.2254 51.0143 48.2075 51.9427 45.9828 51.9427C43.7461 51.9427 41.7186 51.0047 40.2419 49.4835C40.1457 49.3849 40.0519 49.2838 39.9617 49.1804H39.9605C39.726 48.9147 39.5071 48.6321 39.3063 48.3363C39.5264 48.0116 39.7693 47.7037 40.0302 47.4151C40.1192 47.3153 40.2118 47.2179 40.308 47.1229C41.7787 45.6426 43.7786 44.731 45.9828 44.731C48.1702 44.731 50.1581 45.6293 51.6264 47.0916C51.743 47.2071 51.856 47.3261 51.9631 47.4488H51.9643C52.2144 47.7278 52.4465 48.0248 52.6581 48.3374C52.4645 48.6237 52.2541 48.8966 52.028 49.154Z" fill="#1A866C"/>
<path d="M47.0074 16.8525H44.9895V35.4186H47.0074V16.8525Z" fill="#1A866C"/>
<path d="M36.1015 44.956L6.67529 37.6193L7.99689 35.8647L37.4243 43.2027L36.1015 44.956Z" fill="#1A866C"/>
<path d="M40.148 39.8319L22.5055 25.5457L24.0796 24.2241L41.7221 38.5103L40.148 39.8319Z" fill="#1A866C"/>
<path d="M55.899 44.956L85.3264 37.6193L84.0048 35.8647L54.5774 43.2027L55.899 44.956Z" fill="#1A866C"/>
<path d="M51.8538 39.8319L69.4963 25.5457L67.9222 24.2241L50.2797 38.5103L51.8538 39.8319Z" fill="#1A866C"/>
<path d="M31.9069 8.32266L31.967 8.13626L32.0656 8.30582C32.9327 9.80178 33.35 10.5425 34.1641 12.0337C35.161 11.9423 35.6877 11.9002 36.6582 11.8317C35.5578 9.97615 34.4034 8.11823 33.2237 6.30599L33.1996 6.26871L33.2153 6.22783C33.9777 4.26407 34.7918 2.28589 35.6336 0.346191C34.5946 0.420749 34.0366 0.467647 32.9832 0.565053C32.4733 2.10311 32.2268 2.87394 31.7458 4.43844L31.6856 4.63205L31.5858 4.45528C30.7849 3.02786 30.3797 2.32437 29.5523 0.925816C28.4736 1.05329 27.9097 1.12544 26.8743 1.26854C28.0936 2.99539 29.2902 4.76193 30.4338 6.52125L30.4578 6.55853L30.4422 6.59941C29.6654 8.61848 28.9222 10.6772 28.2319 12.7192C29.1711 12.5869 29.6822 12.5207 30.6502 12.4053C31.1301 10.7734 31.3802 9.96172 31.9069 8.32266Z" fill="#1A866C"/>
<path d="M39.952 0.115436C39.014 3.98522 38.1421 7.91873 37.3605 11.8066C38.2636 11.744 38.7518 11.7164 39.6718 11.6707C39.8353 10.7158 39.9231 10.2168 40.0987 9.24033L40.1107 9.17178L40.1804 9.16818C41.4792 9.11045 42.1117 9.09001 43.4069 9.06596L43.4766 9.06475L43.4934 9.1321C43.7303 10.0953 43.8506 10.5884 44.0743 11.53C44.9906 11.5167 45.4788 11.5143 46.388 11.5191C45.361 7.68784 44.2414 3.81927 43.0605 0.015625C41.8279 0.0408784 41.193 0.0613218 39.952 0.115436ZM42.9415 7.31506C41.9686 7.3367 41.496 7.35234 40.5316 7.39202L40.4234 7.39683L40.4426 7.2898C40.7637 5.52688 41.5489 1.80741 41.5489 1.80741C41.5489 1.80741 42.5927 5.47156 43.0245 7.20683L43.0509 7.31265L42.9415 7.31506Z" fill="#1A866C"/>
<path d="M47.5604 0L47.4197 11.5288C49.5686 11.5564 51.7428 11.6418 53.887 11.7813L54.0024 10.0244C52.3345 9.91496 51.4891 9.87408 49.7863 9.82116L49.6997 9.81876L50.0076 0.054114C49.0347 0.0228479 48.5224 0.0120254 47.5604 0Z" fill="#1A866C"/>
<path d="M63.0842 2.57949C62.8569 2.02512 62.4769 1.56334 61.9526 1.20619C61.4187 0.843022 60.6623 0.607324 59.7062 0.506311C58.749 0.4065 57.9613 0.478652 57.3637 0.72397C56.7768 0.964479 56.309 1.33727 55.9723 1.83151C55.6344 2.32816 55.3927 2.94747 55.252 3.67501C55.1113 4.40134 55.0079 5.21787 54.9442 6.09934C54.8816 6.96757 54.8648 7.79011 54.8961 8.5429C54.9261 9.27886 55.062 9.92823 55.3025 10.4742C55.5382 11.0105 55.9062 11.4531 56.3968 11.7886C56.8899 12.1253 57.5621 12.3357 58.4532 12.4295C58.7586 12.462 59.0412 12.4764 59.2914 12.4716C59.5415 12.468 59.7868 12.4367 60.0201 12.379L60.0754 12.3658L60.1103 12.4103C60.5841 13.0224 60.8246 13.3374 61.2828 13.9495C61.8359 13.5683 62.1414 13.3603 62.703 12.9851C62.2989 12.4512 62.0825 12.1686 61.6543 11.619L61.6086 11.5613L61.658 11.5072C62.1101 11.0153 62.4492 10.378 62.6669 9.61317C62.8894 8.8267 63.0709 7.93802 63.2044 6.96877C63.3259 6.09332 63.3944 5.27319 63.4077 4.53362C63.4197 3.79166 63.3115 3.13386 63.0842 2.57949ZM61.0567 4.66951C61.0338 5.21186 60.9749 5.88408 60.8823 6.66934C60.7897 7.44739 60.6899 8.1184 60.5853 8.66315C60.4795 9.21031 60.3448 9.65766 60.1836 9.99197C60.0189 10.3347 59.8072 10.58 59.5571 10.7219C59.3611 10.8325 59.1242 10.8879 58.8512 10.8879C58.7755 10.8879 58.6961 10.883 58.6155 10.8746C58.2403 10.8349 57.9409 10.7195 57.7256 10.5295C57.5104 10.3395 57.3553 10.0557 57.2651 9.68532C57.1773 9.32455 57.1376 8.85917 57.1496 8.30239C57.1605 7.74441 57.2025 7.06738 57.2735 6.29054C57.3456 5.50408 57.4286 4.83426 57.5188 4.29793C57.6114 3.75197 57.7389 3.30102 57.8988 2.9607C58.0636 2.60836 58.2812 2.35702 58.5446 2.21392C58.8091 2.07082 59.1434 2.01911 59.5427 2.0612C59.9407 2.10329 60.2582 2.22234 60.4867 2.41835C60.7152 2.61316 60.8751 2.90418 60.9641 3.28298C61.0483 3.64976 61.0795 4.11634 61.0567 4.66951Z" fill="#1A866C"/>
<path d="M5.65073 69.7703H8.11474L4.60813 63.1491L4.63579 63.1058L7.73955 58.2114H5.38136L2.22589 63.0901L2.22349 62.911V58.2114H0.03125V69.7703H2.22349V66.3478L3.19153 64.8687L5.65073 69.7703Z" fill="#1A866C"/>
<path d="M9.8247 69.3039C10.1626 69.5733 10.5546 69.7585 10.9888 69.8547C11.869 70.0471 12.8611 70.0555 13.7426 69.8306C14.1779 69.7188 14.5699 69.5228 14.9091 69.2474C15.247 68.9732 15.5199 68.5944 15.722 68.1218C15.924 67.6468 16.0274 67.0371 16.0274 66.3072V58.2104H13.8352V66.3072C13.8352 66.6054 13.8159 66.8832 13.7763 67.1333C13.7366 67.3895 13.6608 67.6155 13.5526 67.8043C13.4407 67.9979 13.2856 68.1531 13.0932 68.2637C12.8996 68.3755 12.6567 68.4309 12.3681 68.4309C12.0795 68.4309 11.8366 68.3743 11.6429 68.2637C11.4493 68.1531 11.2954 67.9979 11.1836 67.8043C11.0741 67.6155 10.9996 67.3895 10.9599 67.1333C10.9214 66.8844 10.901 66.6066 10.901 66.3072V58.2104H8.70874V66.3072C8.70874 67.0804 8.81096 67.7141 9.01419 68.1879C9.21381 68.6605 9.48679 69.0357 9.8247 69.3039Z" fill="#1A866C"/>
<path d="M24.39 58.2114H17.0713V59.9768H19.6351V69.7703H21.8273V59.9768H24.39V58.2114Z" fill="#1A866C"/>
<path d="M26.5533 69.3039C26.8913 69.5733 27.2833 69.7585 27.7174 69.8547C28.5977 70.0471 29.5898 70.0555 30.4712 69.8306C30.9065 69.7188 31.2986 69.5228 31.6377 69.2474C31.9756 68.9732 32.2486 68.5944 32.4506 68.1218C32.6526 67.6468 32.7561 67.0371 32.7561 66.3072V58.2104H30.5638V66.3072C30.5638 66.6054 30.5446 66.8832 30.5049 67.1333C30.4652 67.3895 30.3894 67.6155 30.2812 67.8043C30.1694 67.9979 30.0143 68.1531 29.8218 68.2637C29.6282 68.3755 29.3853 68.4309 29.0967 68.4309C28.8081 68.4309 28.5652 68.3743 28.3716 68.2637C28.178 68.1519 28.024 67.9979 27.9122 67.8043C27.8028 67.6155 27.7282 67.3895 27.6885 67.1333C27.6501 66.8844 27.6296 66.6066 27.6296 66.3072V58.2104H25.4374V66.3072C25.4374 67.0804 25.5396 67.7141 25.7428 68.1879C25.9424 68.6605 26.2154 69.0357 26.5533 69.3039Z" fill="#1A866C"/>
<path d="M41.7307 67.7132C41.8486 67.3067 41.9075 66.8726 41.9075 66.4228C41.9075 65.658 41.7199 65.0411 41.3519 64.5878C40.9851 64.1368 39.6166 63.6883 39.6166 63.6883C39.6166 63.6883 40.8336 63.1195 41.1162 62.6853C41.4012 62.2476 41.5455 61.7137 41.5455 61.098C41.5455 60.5544 41.465 60.0902 41.3062 59.7187C41.1487 59.3507 40.925 59.0525 40.6424 58.8324C40.3574 58.6111 40.0123 58.45 39.6154 58.355C39.2126 58.2588 38.7689 58.2095 38.2963 58.2095H34.4241V69.7683H38.3299C39.0058 69.7683 39.5782 69.6769 40.0315 69.4953C40.4825 69.315 40.8541 69.0708 41.1343 68.769C41.4132 68.4708 41.6141 68.1148 41.7307 67.7132ZM36.6163 59.78H37.5579C38.1676 59.78 38.6234 59.9026 38.912 60.1456C39.2054 60.3921 39.3545 60.8118 39.3545 61.395C39.3545 61.9794 39.1909 62.4027 38.8687 62.6553C38.5536 62.9018 38.0509 63.0269 37.3775 63.0269H36.6163V59.78ZM39.0551 67.8082C38.6907 68.0703 38.2097 68.2026 37.624 68.2026H36.6163V64.4952H37.7226C37.9908 64.4952 38.2409 64.524 38.467 64.5793C38.6991 64.6371 38.9011 64.7405 39.0695 64.886C39.2379 65.0315 39.3725 65.2251 39.4711 65.4608C39.5685 65.6953 39.6179 65.9911 39.6179 66.3399C39.6167 67.047 39.4278 67.54 39.0551 67.8082Z" fill="#1A866C"/>
<path d="M48.7727 69.7703H51.2379L48.3555 63.9259L51.0431 58.2114H48.6597L47.1048 62.1558L45.5343 58.2114H43.1172L45.7712 63.9259L45.7531 63.9632L42.8899 69.7703H45.289L47.0218 65.6576L48.7727 69.7703Z" fill="#1A866C"/>
<path d="M59.2949 68.3382C59.5679 67.8139 59.747 67.1742 59.8276 66.4382C59.9094 65.695 59.9503 64.8713 59.9503 63.991C59.9503 63.1108 59.9094 62.2882 59.8276 61.5439C59.747 60.8079 59.5679 60.1682 59.2949 59.6438C59.0243 59.1243 58.6299 58.7143 58.1212 58.4221C57.6113 58.1299 56.9126 57.9819 56.0444 57.9819C55.1762 57.9819 54.4775 58.1299 53.9676 58.4221C53.4589 58.7143 53.0645 59.1243 52.7939 59.6438C52.521 60.1694 52.3418 60.8079 52.2612 61.5439C52.1794 62.287 52.1385 63.1096 52.1385 63.991C52.1385 64.8725 52.1794 65.695 52.2612 66.4382C52.3418 67.1742 52.521 67.8139 52.7939 68.3382C53.0645 68.8577 53.4589 69.269 53.9676 69.56C54.4775 69.8522 55.1762 70.0001 56.0444 70.0001C56.9126 70.0001 57.6113 69.8522 58.1212 69.56C58.6299 69.269 59.0243 68.8577 59.2949 68.3382ZM57.7003 66.0101C57.6618 66.5693 57.5825 67.0299 57.4658 67.3786C57.3456 67.7394 57.1688 68.0075 56.9415 68.1771C56.7142 68.3467 56.4112 68.432 56.0432 68.432C55.6752 68.432 55.3734 68.3467 55.1449 68.1771C54.9176 68.0087 54.7421 67.7394 54.6218 67.3786C54.5052 67.0287 54.4258 66.5681 54.3873 66.0101C54.3488 65.4593 54.3296 64.7799 54.3296 63.991C54.3296 63.2022 54.3488 62.5263 54.3873 61.9804C54.4258 61.4284 54.5052 60.9678 54.6218 60.6119C54.7421 60.2463 54.9176 59.9746 55.1449 59.805C55.3734 59.6354 55.6752 59.5501 56.0432 59.5501C56.4112 59.5501 56.713 59.6354 56.9415 59.805C57.1688 59.9746 57.3456 60.2451 57.4658 60.6119C57.5825 60.9666 57.6606 61.4272 57.7003 61.9804C57.7388 62.5287 57.758 63.2046 57.758 63.991C57.758 64.7775 57.7388 65.4569 57.7003 66.0101Z" fill="#1A866C"/>
<path d="M66.5895 69.7703H69.1353V58.2114H67.1402L67.1426 66.4092L64.1002 58.2114H61.5208V69.7703H63.5158V61.5533L63.511 61.3693L66.5895 69.7703Z" fill="#1A866C"/>
<path d="M76.2436 67.2884L76.7859 69.7693H79.0683L76.0091 58.2104H73.218L70.1587 69.7693H72.4411L72.9835 67.2884H76.2436ZM74.6129 59.894L75.8708 65.5243H73.3551L74.6129 59.894Z" fill="#1A866C"/>
<path d="M87.2613 66.4887C87.2613 66.1352 87.2288 65.8093 87.1651 65.5219C87.1026 65.2393 86.9883 64.9759 86.8248 64.739C86.6612 64.5021 86.4352 64.276 86.155 64.0692C85.8712 63.8612 85.5092 63.6567 85.0787 63.4619L83.2556 62.6743C82.7313 62.4578 82.3946 62.2233 82.2299 61.9587C82.0687 61.7002 81.987 61.3779 81.987 61.0003C81.987 60.8175 82.0074 60.6396 82.0471 60.4712C82.088 60.2944 82.1661 60.1357 82.278 59.9998C82.3898 59.8639 82.5425 59.7533 82.7289 59.6715C82.9141 59.5897 83.1474 59.5489 83.4216 59.5489C83.911 59.5489 84.267 59.7136 84.4798 60.0407C84.6746 60.3389 84.7793 60.7598 84.7889 61.2913H86.8837V61.0496C86.8837 60.5061 86.7947 60.0347 86.6204 59.6475C86.446 59.2626 86.2007 58.9416 85.8892 58.6938C85.5765 58.4449 85.2001 58.2621 84.7708 58.1515C84.3355 58.0385 83.8545 57.9819 83.3386 57.9819C82.2371 57.9819 81.3616 58.2645 80.7339 58.8225C80.1098 59.3781 79.7935 60.2271 79.7935 61.3454C79.7935 61.8265 79.8524 62.2486 79.9703 62.5997C80.0857 62.9472 80.2709 63.2575 80.5186 63.5208C80.7688 63.7866 81.085 64.0271 81.459 64.2352C81.8366 64.4456 82.2912 64.6392 82.8083 64.8124C83.2027 64.9435 83.5394 65.0745 83.8112 65.202C84.0866 65.3319 84.3127 65.4774 84.4822 65.6361C84.6554 65.7985 84.7817 65.9837 84.8574 66.1869C84.932 66.3877 84.9693 66.627 84.9693 66.8988C84.9693 67.4171 84.8117 67.8067 84.5015 68.0592C84.1972 68.307 83.8497 68.432 83.4685 68.432C83.1402 68.432 82.8672 68.3851 82.6604 68.2925C82.4511 68.1999 82.2792 68.0689 82.1505 67.9053C82.0218 67.7418 81.9328 67.5385 81.8871 67.3016C81.8426 67.0732 81.8198 66.8158 81.8198 66.5368V66.2783H79.6276V66.6679C79.6276 67.7237 79.9102 68.5523 80.4657 69.1295C81.0213 69.7055 81.9653 69.9989 83.2701 69.9989C84.5255 69.9989 85.5164 69.7127 86.2139 69.1475C86.9102 68.5884 87.2613 67.6925 87.2613 66.4887Z" fill="#1A866C"/>
<path d="M90.9256 58.2114H88.7334V69.7703H90.9256V58.2114Z" fill="#1A866C"/>
</svg>
