<svg width="14" height="14" viewBox="0 0 14 14" fill="none" xmlns="http://www.w3.org/2000/svg">
<g opacity="0.4" clip-path="url(#clip0)">
<path d="M7.00001 4.74707C5.75694 4.74707 4.74695 5.75706 4.74695 7.00012C4.74695 8.24319 5.75694 9.25317 7.00001 9.25317C8.24307 9.25317 9.25306 8.24319 9.25306 7.00012C9.25306 5.75706 8.24307 4.74707 7.00001 4.74707ZM6.82908 6.33198C6.54939 6.33198 6.31632 6.56505 6.31632 6.84474H5.57048C5.58602 6.14552 6.1454 5.58614 6.82908 5.58614V6.33198Z" fill="#1B1B1B"/>
<path d="M13.8368 6.53361C13.0755 5.58577 10.3563 2.49365 7 2.49365C3.64373 2.49365 0.924528 5.58577 0.163152 6.53361C-0.054384 6.79776 -0.054384 7.18622 0.163152 7.46591C0.924528 8.41374 3.64373 11.5059 7 11.5059C10.3563 11.5059 13.0755 8.41374 13.8368 7.46591C14.0544 7.20176 14.0544 6.8133 13.8368 6.53361ZM7 10.2628C5.19756 10.2628 3.73696 8.8022 3.73696 6.99976C3.73696 5.19732 5.19756 3.73672 7 3.73672C8.80244 3.73672 10.263 5.19732 10.263 6.99976C10.263 8.8022 8.80244 10.2628 7 10.2628Z" fill="#1B1B1B"/>
</g>
<defs>
<clipPath id="clip0">
<rect width="14" height="14" fill="white"/>
</clipPath>
</defs>
</svg>
