<svg width="57" height="51" viewBox="0 0 57 51" fill="none" xmlns="http://www.w3.org/2000/svg">
<path fill-rule="evenodd" clip-rule="evenodd" d="M1.26344 48.6254L1.18063 47.8239L0.819824 47.8462L0.832788 50.2461L1.19075 50.2226C1.21047 50.0503 1.20626 49.9507 1.20745 49.7808C1.20542 49.6865 1.20266 49.5901 1.20455 49.4958C1.20484 49.4827 1.20629 49.4206 1.20991 49.4112C1.22041 49.3846 1.28348 49.3836 1.30772 49.3845C1.33845 49.3857 1.33654 49.4077 1.34811 49.4306C1.3852 49.5041 1.46325 49.5947 1.51855 49.6572C1.52716 49.6669 1.53578 49.6765 1.54439 49.6861C1.60917 49.7584 1.67678 49.8286 1.74095 49.9012C1.75168 49.9134 1.76238 49.9257 1.77271 49.9383C1.98319 50.1954 2.01483 50.2297 2.44116 50.2202C2.37334 50.0829 1.99696 49.6644 1.92488 49.5865C1.69932 49.3429 1.56245 49.2668 1.41509 48.9955C1.64405 48.6517 2.24193 48.1492 2.36716 47.8467C2.24094 47.8438 2.35536 47.8464 2.00044 47.8239C1.87622 47.9616 1.36368 48.5448 1.26333 48.6254H1.26344Z" fill="black"/>
<path fill-rule="evenodd" clip-rule="evenodd" d="M55.9715 47.8774C56.2832 47.9252 56.1597 48.0663 56.1598 48.9955L56.1664 49.9862C56.1201 50.351 56.2148 50.0962 56.0371 50.2036C55.9092 50.1358 55.8915 50.2629 55.9002 49.7173C55.9053 49.3998 55.8256 48.1042 55.9715 47.8774ZM55.8518 50.2511L56.2296 50.2151L56.204 47.8281L55.8406 47.8415L55.8518 50.2511Z" fill="black"/>
<path fill-rule="evenodd" clip-rule="evenodd" d="M7.72013 50.2408L8.10387 50.2358L8.07084 47.8212L7.71094 47.8486L7.72013 50.2408Z" fill="black"/>
<path fill-rule="evenodd" clip-rule="evenodd" d="M21.0929 48.1988C22.2128 47.685 22.5148 49.587 21.701 49.8831C20.5578 50.2991 20.1818 48.6169 21.0929 48.1988ZM22.4398 49.3889C22.9128 47.688 20.6792 47.2409 20.3158 48.6221C20.1308 49.3252 20.4095 50.0316 20.9856 50.2047C21.7985 50.4491 22.2665 50.0122 22.4398 49.3889Z" fill="black"/>
<path fill-rule="evenodd" clip-rule="evenodd" d="M49.2465 48.1678C49.5881 48.1579 49.9609 48.1368 49.9628 48.5365C49.9649 48.9446 49.6057 48.9302 49.225 48.9191L49.2465 48.1678ZM49.9073 49.1034C50.3006 48.9643 50.9644 47.7196 48.8945 47.8525L48.9098 50.2129L49.2173 50.2311L49.2222 49.2508C49.8426 49.2313 49.6023 49.4374 50.0734 50.2209L50.4154 50.2101L49.9073 49.1034Z" fill="black"/>
<path fill-rule="evenodd" clip-rule="evenodd" d="M28.3691 49.8777L28.3659 49.1865C28.4664 49.185 28.5715 49.181 28.6715 49.1814C28.808 49.182 28.9945 49.2156 29.0522 49.3584C29.0883 49.4479 29.0968 49.6511 29.0417 49.7367C28.9578 49.8493 28.8119 49.84 28.6836 49.8499C28.6175 49.8557 28.5516 49.8616 28.4856 49.8674C28.4506 49.8705 28.4157 49.8736 28.3808 49.8767L28.3691 49.8777ZM27.9651 47.8415L27.9793 50.2192C28.3631 50.3088 28.6388 50.2975 29.0065 50.1474C29.2213 50.0571 29.3462 49.9362 29.4001 49.7035C29.4422 49.5145 29.4378 49.3413 29.326 49.1769C29.2814 49.1112 29.2411 49.075 29.1944 49.0171C29.1127 48.9158 29.1831 48.8349 29.2262 48.7306C29.3608 48.4051 29.3699 48.0465 28.9795 47.9163L28.9639 47.9112C28.7091 47.8296 28.5916 47.7943 28.3178 47.8051C28.1994 47.8099 28.0821 47.8235 27.9651 47.8415ZM28.7404 48.7686L28.3555 48.7989L28.3578 48.1924C28.4834 48.1947 28.7701 48.1793 28.8705 48.2411C28.9707 48.3027 28.9702 48.4329 28.9656 48.5366C28.9584 48.6928 28.8874 48.7431 28.7404 48.7686H28.7404Z" fill="black"/>
<path fill-rule="evenodd" clip-rule="evenodd" d="M42.4633 48.4706C42.5887 48.6362 42.6956 48.9514 42.7498 49.2197L42.1929 49.2131L42.4633 48.4706ZM42.0753 49.539L42.8941 49.5419L43.1528 50.2154L43.5034 50.2064C43.4438 50.0525 43.3843 49.8987 43.3247 49.7448C43.3003 49.6818 43.2758 49.6186 43.2513 49.5555C43.1918 49.4017 43.1322 49.2479 43.0726 49.0939C43.0115 48.9362 42.9504 48.7784 42.8893 48.6206C42.809 48.4136 42.7271 48.2104 42.6527 48.001C42.6144 47.8931 42.5711 47.8351 42.4448 47.8589C42.2741 47.891 42.2563 48.0408 42.2155 48.1815C42.2022 48.2261 42.1884 48.2691 42.1729 48.313C42.014 48.7575 41.5186 49.9375 41.4829 50.2244L41.8022 50.2218L42.0753 49.539Z" fill="black"/>
<path fill-rule="evenodd" clip-rule="evenodd" d="M14.1433 48.2183L14.1459 50.2197L14.4525 50.2189L14.4815 48.1664C14.6837 48.1679 14.8941 48.1658 15.0923 48.1734C15.1364 48.1751 15.1299 48.1308 15.1303 48.0936C15.1309 48.045 15.1309 47.8569 15.1306 47.8081C14.576 47.8123 14.0239 47.8274 13.4695 47.8414L13.5049 48.1774L14.1433 48.2183Z" fill="black"/>
<path fill-rule="evenodd" clip-rule="evenodd" d="M35.049 47.8431C34.869 47.9694 34.9828 47.7626 34.9297 48.0744L34.947 50.2222L36.1395 50.2148L36.139 49.9143L35.2784 49.887C35.2467 49.5274 35.2641 49.1602 35.2645 48.7988C35.266 47.6702 35.3672 47.8967 35.0491 47.8431H35.049Z" fill="black"/>
<path fill-rule="evenodd" clip-rule="evenodd" d="M55.9713 47.8774C55.8254 48.1042 55.9051 49.3998 55.9 49.7174C55.8913 50.2629 55.909 50.1358 56.037 50.2036C56.2146 50.0963 56.1199 50.351 56.1662 49.9863L56.1596 48.9955C56.1596 48.0664 56.283 47.9252 55.9713 47.8774Z" fill="black"/>
<path fill-rule="evenodd" clip-rule="evenodd" d="M46.9751 43.6089C47.1494 42.6068 47.0756 40.7194 47.0857 39.6189C47.1728 30.0683 47.1092 20.2466 47.0598 10.702C47.0527 9.33051 47.076 7.93799 47.0452 6.56974C47.0233 5.60175 46.6897 3.37665 48.0231 3.5664C49.1361 3.72481 48.7752 5.80609 48.751 6.83221C48.7189 8.19641 48.7478 9.5962 48.7477 10.9643L48.746 35.8157C48.746 38.3539 48.3402 41.5039 49.9002 42.935C51.7601 44.6411 54.3252 43.8105 55.3821 42.0461C56.3019 40.5105 55.9094 36.4134 55.8977 34.3732C55.866 28.8708 55.9403 23.3541 55.9481 17.8492C55.9558 12.4183 56.0832 6.77634 55.8601 1.3688C55.5744 1.28329 53.5753 1.2845 53.2485 1.34893C53.1047 2.75172 53.1472 7.91209 53.1442 9.65283L53.1994 34.8977C53.1979 36.2967 53.1779 37.6968 53.2388 39.0943C53.2644 39.6836 53.3068 40.5489 53.0101 40.9871C52.6602 41.5037 51.917 41.4191 51.6194 40.9542C51.1925 40.2874 51.4269 38.0438 51.4263 37.0616L51.4292 7.48901C51.4293 6.29844 51.5435 4.58038 51.218 3.52387C50.8812 2.4309 50.1976 1.65847 49.1932 1.27876C48.0537 0.84796 46.724 1.12648 45.8884 1.73563C45.0514 2.34586 44.5702 2.98589 44.3588 4.40602C44.1042 6.11664 44.3064 10.5711 44.3019 12.6691C44.2817 22.325 44.1515 32.3981 44.297 42.045C44.3223 43.7241 44.2069 43.5975 44.8166 43.5951C45.536 43.5922 46.2557 43.6159 46.9752 43.6089H46.9751Z" fill="black"/>
<path fill-rule="evenodd" clip-rule="evenodd" d="M16.4343 1.12047C16.3547 5.73548 16.4258 10.6241 16.4198 15.2919C16.4195 15.5564 16.3033 19.8284 16.474 19.9725C16.7682 20.0853 18.7818 20.0846 19.1443 19.9881C19.1731 18.1039 18.8731 4.08207 19.2722 3.59455C19.4033 3.47282 19.1632 3.58916 19.3948 3.53499L20.8401 3.53238C21.084 4.98348 20.9164 14.7771 20.9111 17.3246C20.9028 21.279 20.9845 20.8132 19.1802 21.1263C18.4417 21.2544 17.7358 21.7871 17.3895 22.1619C16.3947 23.2384 16.3944 24.9031 16.3645 26.7011C16.3337 28.5562 16.3619 30.4196 16.3933 32.2747C16.4247 34.133 16.3924 35.99 16.3812 37.8483C16.3709 39.5546 16.2781 41.6794 16.4329 43.3442C17.9081 43.5458 22.292 43.6258 23.6402 43.2848C23.5814 40.8884 23.9953 25.2109 23.506 24.39C23.4449 24.3389 20.9446 23.9612 20.8527 24.4876L20.8324 36.668C20.8321 37.8366 20.939 39.689 20.8089 40.7762L19.1475 40.8165C19.1067 39.0277 19.2057 37.1042 19.2028 35.291C19.2016 34.5776 19.0759 24.6571 19.1572 24.261C19.3467 23.338 20.0683 23.4356 20.9475 23.2913C23.4792 22.8756 23.781 19.9507 23.6783 17.6951C23.5949 15.8613 23.649 13.9829 23.6597 12.1444C23.6684 10.6625 23.772 2.48982 23.6138 1.15236C22.7458 0.865032 17.4979 0.935809 16.4343 1.12034V1.12047Z" fill="black"/>
<path fill-rule="evenodd" clip-rule="evenodd" d="M4.19569 21.2291C4.09533 18.1625 4.15399 14.961 4.14364 11.8804C4.13848 10.3428 4.12361 8.777 4.11725 7.22668C4.11409 6.44685 4.08901 5.63971 4.11009 4.86322C4.12821 4.19821 4.27473 3.45791 4.99602 3.50537C5.77631 3.55672 5.87963 4.21448 5.86867 4.99709L5.88624 12.0134C5.89404 13.7716 5.97903 19.9464 5.79278 21.2613C5.39025 21.2716 4.5428 21.331 4.19569 21.2291ZM8.53514 43.5524C8.66311 32.1073 8.54112 20.3705 8.54376 8.86599C8.54405 7.34675 8.77143 4.59358 8.30569 3.3425C7.19487 0.358623 2.65027 0.199697 1.62214 3.64258C1.1424 5.24884 1.4174 7.32834 1.42392 9.06268C1.43839 12.9084 1.4245 16.7571 1.4245 20.6032C1.4245 22.974 1.31388 43.0418 1.51126 43.5707C1.89169 43.6846 2.45422 43.6218 2.911 43.6343C4.27813 43.6716 4.23327 43.8588 4.1348 40.6181C4.02479 36.9965 4.14265 32.9602 4.0931 29.2586C4.06793 27.3807 4.03803 25.554 4.14326 23.6867L5.85747 23.7001L5.87449 43.553L8.53514 43.5524Z" fill="black"/>
<path fill-rule="evenodd" clip-rule="evenodd" d="M34.9245 3.53623C36.3083 3.15826 35.9425 6.33982 35.9425 7.3578V32.0781C35.9425 34.4148 35.8923 37.2552 35.9489 39.5532C35.9685 40.3492 36.0575 41.1649 35.3026 41.3163C34.3079 41.516 34.1902 40.7773 34.1838 39.9469L34.1847 22.6359C34.1847 17.7951 34.2509 12.5593 34.1814 7.75129C34.1694 6.919 34.1451 6.09274 34.1509 5.25953C34.1568 4.42945 34.1975 3.73476 34.9244 3.53623H34.9245ZM38.6471 7.55449C38.6697 6.56043 38.6846 5.51369 38.5957 4.53285C38.4937 3.40663 38.3097 2.93168 37.7147 2.26723C35.8787 0.216948 32.5761 1.07112 31.7202 3.3734C31.4137 4.19812 31.4667 5.30564 31.464 6.24313L31.487 24.9964C31.487 29.1145 31.5417 33.284 31.4566 37.3873C31.4122 39.5237 31.2754 41.3524 32.4246 42.7022C33.3504 43.7896 35.4759 44.2619 37.0191 43.2944C38.5057 42.3624 38.6325 40.9729 38.645 38.7008C38.6564 36.6475 38.6196 34.5926 38.6196 32.5371C38.6196 28.3624 38.6196 24.1877 38.6196 20.013C38.6196 15.8761 38.5531 11.6849 38.6471 7.55449Z" fill="black"/>
</svg>
