<svg width="56" height="104" viewBox="0 0 56 104" fill="none" xmlns="http://www.w3.org/2000/svg">
<path fill-rule="evenodd" clip-rule="evenodd" d="M44.6719 0.452423C44.569 0.512384 44.2711 0.917362 44.1259 1.19464C43.7635 1.8871 43.3077 2.84923 42.8888 3.80617C42.7933 4.0243 42.665 4.31341 42.6035 4.44872C42.5423 4.58404 42.4921 4.71595 42.4921 4.74172C42.4921 4.76749 42.4392 4.89276 42.3747 5.02013C42.3102 5.14751 42.2033 5.39335 42.1372 5.56659C42.071 5.73982 41.9689 6.00738 41.9103 6.16133C41.8514 6.31512 41.7617 6.54605 41.7108 6.67424C41.4766 7.26283 41.0464 8.44049 41.0464 8.49299C41.0464 8.51357 40.9853 8.70026 40.9106 8.90802C40.2622 10.7115 39.637 13.1947 39.3945 14.9286C39.1563 16.6334 39.1323 27.014 39.3371 39.82L39.3511 40.6943H37.0042H34.6575V42.9913V45.2883L36.6161 47.2466L38.5747 49.2049V54.743V60.2811H37.0125H35.4502L35.4525 62.1813L35.4548 64.0818L36.0398 64.7579C36.3615 65.1298 36.8347 65.6911 37.0912 66.0054C37.3477 66.3196 37.5767 66.5766 37.5999 66.5766C37.6231 66.5766 37.642 66.5986 37.642 66.6255C37.642 66.6525 37.8833 66.9544 38.1783 67.2966L38.7147 67.9188V69.8359V71.7532H40.8832H43.0516V69.7655V67.7779L42.575 67.259C42.0521 66.6896 41.7165 66.327 41.4661 66.0611C41.3763 65.9657 41.2316 65.8067 41.1447 65.7075C40.9998 65.5427 40.6654 65.1782 39.8953 64.3466L39.607 64.0351L41.3293 64.0229L43.0516 64.0106V56.1789C43.0516 49.5421 43.0417 48.3414 42.9868 48.3098C42.9244 48.2738 42.0435 47.4535 41.4445 46.8735C41.2857 46.7196 40.8854 46.3418 40.555 46.0341C40.2247 45.7263 39.7647 45.2914 39.5327 45.0674L39.1111 44.6605L41.0814 44.6593L43.0516 44.6584L43.0531 29.3271C43.0547 11.9346 43.0448 12.3812 43.4756 10.3811C43.5503 10.0346 43.6112 9.71327 43.6112 9.66709C43.6112 9.56127 43.8496 8.6967 44.0608 8.03681C44.3406 7.1617 44.7356 6.43342 44.8966 6.49533C45.035 6.54848 45.6149 7.78886 45.6175 8.03729C45.6178 8.08283 45.6808 8.3183 45.7573 8.56073C45.8338 8.80301 45.8964 9.04447 45.8962 9.09698C45.896 9.14948 45.9578 9.4864 46.0333 9.84535C46.4608 11.877 46.4535 11.5408 46.4548 29.1405L46.4559 44.6117H48.3095H50.163L48.3095 46.4656L46.4559 48.3195V56.1656V64.0117L48.4962 64.0121L50.5365 64.0122L50.2529 64.2801C50.0969 64.4276 49.8766 64.6329 49.7632 64.7365C48.9583 65.4727 47.9426 66.4112 47.6203 66.7166C47.1764 67.1372 46.5799 67.6763 46.5213 67.7099C46.4657 67.7416 46.4559 69.2374 46.4559 77.7946V87.8421H49.021H51.5858V77.8577V67.8732L53.4979 65.9608L55.4099 64.0484V62.188V60.3276H53.1015H50.7931V54.4769V48.6262L52.5651 46.852L54.3372 45.0779V42.9095V40.741H52.2388H50.1401V27.8266C50.1401 19.2401 50.1241 14.7898 50.0922 14.5472C49.9889 13.7622 49.6856 12.3449 49.4402 11.5009C49.1701 10.5715 48.9597 9.88262 48.8707 9.63565C48.8199 9.4945 48.751 9.28464 48.7178 9.16925C48.6844 9.05387 48.5818 8.75471 48.4897 8.5045C48.3977 8.25429 48.2514 7.85563 48.1645 7.61838C48.0776 7.38129 47.9423 7.01942 47.8636 6.81409C47.7848 6.60893 47.6667 6.29827 47.601 6.12373C47.5352 5.94904 47.4396 5.71957 47.3886 5.61358C47.3374 5.5076 47.2954 5.39286 47.2954 5.35834C47.2954 5.32399 47.2325 5.17117 47.1555 5.01867C47.0786 4.86634 47.0157 4.72049 47.0157 4.69473C47.0157 4.66912 46.9556 4.5163 46.8822 4.35538C46.8086 4.19446 46.7326 4.01166 46.713 3.94927C46.6935 3.88688 46.6276 3.742 46.5668 3.62759C46.5059 3.51301 46.4559 3.40055 46.4559 3.3777C46.4559 3.35468 46.3931 3.20138 46.3161 3.03673C46.2391 2.87224 46.1762 2.7225 46.1762 2.70435C46.1762 2.68604 46.1113 2.52253 46.0317 2.34102C45.9523 2.15936 45.8239 1.86393 45.7465 1.68437C45.254 0.543337 45.0052 0.25828 44.6719 0.452423ZM13.7417 49.5834C13.6903 49.6231 13.554 49.7079 13.4385 49.7716C13.3231 49.8353 13.153 49.9333 13.0603 49.9894C12.9677 50.0454 12.7893 50.153 12.6639 50.2286C12.5384 50.3041 12.373 50.4101 12.296 50.4642C12.219 50.5182 12.0988 50.5909 12.0286 50.6258C11.9586 50.6606 11.8597 50.7277 11.809 50.775C11.7585 50.8222 11.7032 50.8607 11.6865 50.8607C11.6698 50.8607 11.2887 51.1074 10.8396 51.4087C10.3907 51.7101 9.97568 51.9882 9.9175 52.0266C9.31546 52.4246 9.19473 52.5114 9.19473 52.5461C9.19473 52.5682 9.16718 52.5863 9.13364 52.5863C9.09993 52.5863 9.0317 52.6233 8.98212 52.6686C8.93236 52.7139 8.7447 52.8535 8.56515 52.979C8.38559 53.1043 8.19226 53.2485 8.13554 53.2994C8.07882 53.3504 7.99163 53.4154 7.94204 53.4438C7.82666 53.5099 7.17697 54.0019 6.93292 54.208C6.83034 54.2947 6.69405 54.4065 6.62987 54.4566C5.17104 55.5944 3.38859 57.3965 2.62271 58.5078C2.41399 58.8109 2.13071 59.2309 2.08323 59.3079C1.77322 59.8117 1.59512 60.1104 1.48913 60.3042C1.28753 60.6726 0.66054 61.9559 0.66054 62.0001C0.66054 62.0222 0.597663 62.1791 0.520686 62.3487C0.443709 62.5184 0.380831 62.6955 0.380831 62.7422C0.380831 62.789 0.363329 62.8472 0.341938 62.8715C0.287163 62.9339 0.16708 63.2828 0.0808659 63.6308C0.00550985 63.9353 -0.0338701 71.332 0.0375966 71.7648L0.0666048 71.9397H1.92409H3.78174L3.79503 67.8475L3.80848 63.7552L3.9553 63.3355C4.10342 62.9122 4.40144 62.3356 4.71226 61.8705C4.80512 61.7316 4.90203 61.5842 4.92764 61.543C4.9534 61.5017 5.07867 61.332 5.20637 61.1659C5.33391 60.9998 5.45383 60.8429 5.47279 60.8173C5.62901 60.606 6.78285 59.2693 7.16028 58.8626C8.03944 57.9147 8.45073 57.523 9.12294 56.9933C9.2205 56.9163 9.36586 56.8003 9.44576 56.7354C9.60538 56.606 9.94392 56.3669 10.0715 56.2937C10.1162 56.2681 10.2252 56.1947 10.3141 56.1305C10.4027 56.0663 10.511 55.9929 10.5545 55.9673C10.5981 55.9417 10.8083 55.8167 11.0218 55.6895C11.5779 55.3586 13.0539 54.5916 13.1348 54.5916C13.1478 54.5916 13.3179 54.5179 13.5129 54.4278L13.8675 54.2639L14.1543 54.431C14.3121 54.5229 14.4727 54.6174 14.5111 54.641C14.5495 54.6645 14.6651 54.7289 14.7677 54.784C14.8703 54.8391 15.0419 54.9442 15.1492 55.0176C15.2563 55.0911 15.3564 55.1512 15.3715 55.1512C15.3867 55.1512 15.4879 55.2081 15.5963 55.2776C15.7048 55.3473 15.851 55.4364 15.9212 55.4758C16.1061 55.5798 16.7224 55.9715 17.0914 56.2195C17.2666 56.3373 17.4899 56.486 17.5876 56.5502C17.6852 56.6144 17.896 56.7612 18.0561 56.8766C18.2161 56.9921 18.413 57.1309 18.4935 57.1853C18.574 57.2396 18.6684 57.3182 18.7032 57.3602C18.7379 57.402 18.7826 57.4363 18.8024 57.4363C18.8223 57.4363 18.8985 57.4871 18.9716 57.5491C19.0448 57.6112 19.283 57.8128 19.501 57.997C20.0076 58.4249 20.3806 58.8276 20.8827 59.4881C21.1562 59.848 21.7395 60.7202 21.7395 60.7693C21.7395 60.7883 21.8025 60.8834 21.8795 60.9805C21.9563 61.0777 22.0194 61.1824 22.0194 61.2132C22.0194 61.244 22.0594 61.3255 22.1085 61.3944C22.2402 61.5795 22.3992 61.8767 22.9473 62.9624L23.4417 63.9417L23.4537 75.9152L23.4655 87.8888H25.4242H27.3829L27.3709 75.8919L27.3591 63.8952L27.2265 63.5454C27.1538 63.353 27.0314 63.0277 26.9548 62.8226C26.6109 61.9026 25.6849 59.9419 25.4882 59.7178C25.4527 59.6772 25.4237 59.628 25.4237 59.6082C25.4237 59.564 25.1156 59.0519 24.9702 58.8542C24.9119 58.7749 24.8641 58.6955 24.8641 58.6777C24.8641 58.648 24.5883 58.2385 24.2204 57.7224C24.1356 57.6034 24.0314 57.4537 23.9887 57.3897C23.9459 57.3255 23.7989 57.1367 23.662 56.9699C23.5252 56.8032 23.3461 56.5838 23.2643 56.4823C22.5695 55.6218 21.1195 54.2378 20.3405 53.6917C20.2764 53.6468 20.1189 53.5376 19.9907 53.4489C19.8626 53.3603 19.6527 53.2133 19.5243 53.1221C19.3962 53.0308 19.1152 52.8364 18.8999 52.6897C18.6846 52.543 18.4032 52.3496 18.2744 52.2598C18.1456 52.17 18.0023 52.0739 17.956 52.0463C17.9096 52.0188 17.8134 51.9517 17.7421 51.8974C17.6707 51.843 17.4654 51.7038 17.2859 51.5879C17.1063 51.472 16.9368 51.3581 16.9092 51.3344C16.8815 51.3109 16.7662 51.2333 16.6527 51.1618C16.5393 51.0904 16.2051 50.8727 15.9102 50.6783C15.6152 50.4838 15.3214 50.2979 15.2572 50.2654C15.1932 50.2326 15.0253 50.1339 14.8842 50.0458C14.1574 49.592 13.8772 49.4786 13.7417 49.5834ZM31.393 69.8877V71.7532H33.3749H35.3569V69.9161C35.3569 68.2839 35.3486 68.0758 35.2832 68.0507C35.2426 68.0351 34.3507 68.0223 33.3012 68.0223H31.393V69.8877ZM15.7236 79.7976V83.9715H9.80098H3.87849V79.821V75.6705H1.94305H0.0077786V81.8729V88.0753H9.73114H19.4545V81.8496V75.6239H17.5891H15.7236V79.7976ZM8.0289 77.8857V79.8676H10.0342H12.0395V77.8857V75.9036H10.0342H8.0289V77.8857ZM31.393 78.0956V80.2407H35.3569H39.3209V81.9661V83.6917H35.2637H31.2065V85.767V87.8421H37.129H43.0516V81.8962V75.9503H37.2223H31.393V78.0956ZM0.0077786 96.1898V103.138H25.7967H51.5858V96.1898V89.2413H25.7967H0.0077786V96.1898ZM50.6065 96.2364V102.252H25.7734H0.940411V96.2364V90.2206H25.7734H50.6065V96.2364ZM19.501 92.2686C17.3625 92.5748 16.0952 95.1088 16.8198 97.6301C16.9383 98.0424 17.2184 98.6431 17.3661 98.8016C17.4118 98.8506 17.4492 98.9112 17.4492 98.9363C17.4492 99.0118 18.1078 99.5842 18.3914 99.755C19.6645 100.522 21.6427 100.378 22.7835 99.4365C24.4575 98.0542 24.5969 94.7541 23.0466 93.2039C22.7497 92.9068 22.2368 92.5522 22.1041 92.5522C22.0678 92.5522 22.0181 92.5339 21.9938 92.5114C21.761 92.2967 20.2999 92.1544 19.501 92.2686ZM9.98751 93.1632V94.068L11.6948 94.0527C12.8045 94.0427 13.3962 94.0535 13.3853 94.0834C13.3761 94.1086 13.1471 94.3883 12.8765 94.705C12.6058 95.0215 12.2391 95.4587 12.0617 95.6768C11.8841 95.8948 11.5546 96.2867 11.3295 96.5474C11.1044 96.8083 10.9203 97.0444 10.9203 97.0722C10.9203 97.0999 10.9026 97.1225 10.8811 97.1225C10.8597 97.1225 10.7048 97.2956 10.5369 97.5073C10.369 97.7189 10.1138 98.0164 9.96969 98.1685L9.7078 98.4451V99.2761V100.107L12.6807 100.107C14.3159 100.108 15.7638 100.121 15.8985 100.137L16.1434 100.167V99.2625V98.3584L14.2081 98.3746C13.1436 98.3837 12.2727 98.3786 12.2727 98.3634C12.2727 98.3349 12.5934 97.9398 13.433 96.9333C13.6992 96.6142 14.0245 96.2194 14.1558 96.0562C14.2872 95.893 14.4418 95.7161 14.4995 95.6631C14.5572 95.6101 14.6045 95.5467 14.6045 95.5222C14.6045 95.4976 14.6516 95.4321 14.7093 95.3764C14.767 95.3208 14.8563 95.2208 14.9075 95.1542C15.1626 94.8231 15.8836 93.9979 15.9178 93.9979C15.9392 93.9979 15.9568 93.6202 15.9568 93.1585V92.319H13.3991C11.9923 92.319 10.6492 92.3054 10.4144 92.2887L9.98751 92.2584V93.1632ZM43.8911 93.1632V94.068L45.395 94.0529C46.2223 94.0445 47.0031 94.0445 47.1303 94.0529L47.3614 94.068L47.2153 94.2311C47.0152 94.4549 46.4679 95.1006 46.2694 95.3472C46.1796 95.4587 46.0537 95.6101 45.9897 95.6837C45.9255 95.7571 45.8272 95.8749 45.7711 95.9452C45.715 96.0155 45.5361 96.2306 45.3736 96.423C45.211 96.6153 44.9856 96.8882 44.8723 97.0292C44.7592 97.1704 44.6291 97.3277 44.5832 97.3789C44.5374 97.4303 44.3576 97.64 44.1839 97.8452C44.01 98.0503 43.8101 98.2672 43.7396 98.3273L43.6112 98.4365V99.2719V100.107L46.6076 100.107C48.2556 100.108 49.7141 100.121 49.8488 100.137L50.0935 100.167V99.2625V98.3584L48.2864 98.3743C47.2925 98.383 46.4088 98.383 46.3227 98.3743L46.166 98.3584L46.2994 98.2138C46.4384 98.063 46.5811 97.893 47.0581 97.3091C47.2153 97.1167 47.3959 96.9051 47.4596 96.8388C47.5232 96.7725 47.5753 96.703 47.5753 96.6842C47.5753 96.6656 47.6281 96.5938 47.6928 96.5249C47.7866 96.4249 48.4842 95.5906 48.6531 95.3764C48.6745 95.3493 48.955 95.0184 49.2762 94.6413L49.8604 93.9555V93.1373V92.319H47.3025C45.8959 92.319 44.5528 92.3054 44.3179 92.2887L43.8911 92.2584V93.1632ZM4.16063 92.5406C4.13389 92.6368 4.11201 92.742 4.11185 92.7743C4.11168 92.8067 4.03617 93.0374 3.94412 93.2873C3.85207 93.5371 3.71319 93.9198 3.63556 94.1378C3.5581 94.3559 3.43721 94.6917 3.36704 94.8841C3.29687 95.0764 3.20287 95.3386 3.15831 95.467C2.97745 95.9857 2.92446 96.1347 2.8013 96.4696C2.73064 96.662 2.60651 97.0083 2.52564 97.2391C2.44461 97.47 2.32032 97.8162 2.24934 98.0085C2.17819 98.2009 2.0855 98.458 2.0432 98.5798C2.00091 98.7016 1.93171 98.9009 1.88941 99.0228C1.84695 99.1447 1.7421 99.416 1.65621 99.6255C1.57032 99.8352 1.49999 100.019 1.49999 100.034C1.49999 100.048 2.00123 100.06 2.6138 100.06H3.72761L3.75581 99.9556C3.7712 99.8979 3.78417 99.7835 3.78449 99.7015C3.78482 99.6195 3.84543 99.3782 3.91916 99.1653C3.9929 98.9523 4.083 98.6731 4.11963 98.5449L4.18607 98.3117L5.45545 98.2992L6.72484 98.2869L6.77167 98.4101C6.81834 98.5328 7.09206 99.4856 7.1888 99.8623L7.23969 100.06H8.35788H9.4759L9.3354 99.7821C9.2581 99.6289 9.19473 99.4741 9.19473 99.4383C9.19473 99.4024 9.13494 99.2286 9.06201 99.0522C8.98892 98.8758 8.8972 98.637 8.85814 98.5216C8.76123 98.2349 8.64569 97.9111 8.49222 97.4956C8.42108 97.3032 8.29662 96.9569 8.21543 96.7262C8.13424 96.4952 8.00978 96.1489 7.93864 95.9566C7.86766 95.7642 7.77253 95.502 7.72732 95.3736C7.60545 95.0281 7.45133 94.5992 7.23272 93.9979C7.1256 93.703 6.95528 93.2151 6.85432 92.9136L6.67071 92.3657H5.4399H4.20924L4.16063 92.5406ZM25.0394 92.8671C25.0843 93.5186 25.0843 99.0676 25.0394 99.6291L25.0049 100.06H26.0354C26.9995 100.06 27.0635 100.055 27.0298 99.979C27.0016 99.9149 26.9138 95.5009 26.9399 95.4556C26.9434 95.4493 26.9922 95.5359 27.0481 95.6478C27.1351 95.8221 27.8244 96.8965 28.1287 97.3324C28.1825 97.4092 28.3211 97.6191 28.4366 97.7986C28.5523 97.9782 28.6769 98.1672 28.7139 98.2184C28.8883 98.4613 29.3877 99.2364 29.3877 99.2643C29.3877 99.2815 29.4138 99.3218 29.4456 99.3537C29.4775 99.3855 29.5791 99.5524 29.6715 99.7243L29.8394 100.037L30.8843 100.05L31.9292 100.062V96.2139V92.3657H30.9449H29.9604L29.9779 94.6859C29.9904 96.3518 29.9812 96.9735 29.9457 96.8906C29.9183 96.8273 29.8446 96.708 29.7817 96.6257C29.719 96.5432 29.6674 96.4549 29.6674 96.4294C29.6674 96.4038 29.6399 96.3552 29.6062 96.3213C29.5725 96.2875 29.4647 96.1339 29.3668 95.9799C29.2688 95.8261 29.1758 95.6897 29.1599 95.6768C29.1441 95.664 29.0997 95.5979 29.0612 95.5302C28.9661 95.3626 28.6359 94.8662 28.6003 94.8374C28.5846 94.8246 28.54 94.7586 28.5016 94.6907C28.4065 94.5232 28.0764 94.0268 28.0407 93.9979C28.0248 93.9851 27.9804 93.9198 27.942 93.8527C27.9035 93.7858 27.7672 93.576 27.639 93.3865C27.511 93.1969 27.3915 93.0068 27.3737 92.9639C27.3559 92.9209 27.2876 92.8007 27.222 92.6966C27.1562 92.5926 27.1026 92.4756 27.1026 92.4367C27.1026 92.3753 26.9609 92.3657 26.0537 92.3657H25.0049L25.0394 92.8671ZM35.8009 92.4707C35.8204 92.5284 35.8516 93.7508 35.8704 95.1871C35.9061 97.9121 35.9142 98.0169 36.1213 98.432C36.1625 98.5148 36.1963 98.6041 36.1963 98.6303C36.1963 98.6567 36.2798 98.8057 36.3817 98.9612C37.6169 100.848 41.5419 100.643 42.4859 98.6434C42.799 97.9805 42.7839 98.1245 42.8209 95.4203C42.8395 94.061 42.8703 92.8175 42.8893 92.6573L42.9238 92.3657H41.8923H40.8606L40.8953 92.8671C40.9762 94.0412 40.937 97.2122 40.837 97.5855C40.6618 98.2398 40.2494 98.5334 39.4678 98.5603C38.4789 98.5943 38.0214 98.2895 37.8539 97.4852C37.7686 97.0756 37.765 92.7161 37.8498 92.4707L37.8861 92.3657H36.8259H35.7658L35.8009 92.4707ZM20.8242 93.9284C21.8221 94.1884 22.3269 95.4456 22.0501 96.9825C21.6961 98.9491 19.3879 99.1581 18.7745 97.2791C18.4807 96.3787 18.6138 95.0771 19.0531 94.5551C19.1199 94.4755 19.1746 94.3932 19.1746 94.3721C19.1746 94.3509 19.2429 94.2903 19.3261 94.2371C19.4096 94.1842 19.5198 94.1096 19.571 94.0714C19.8248 93.8827 20.3977 93.8173 20.8242 93.9284ZM5.64473 94.744C5.71636 94.9622 5.84439 95.3608 5.92914 95.6302C6.01406 95.8995 6.12248 96.2374 6.17012 96.3811C6.21776 96.5249 6.25682 96.656 6.25682 96.6725C6.25682 96.6892 5.89997 96.7028 5.46404 96.7028C5.02795 96.7028 4.67126 96.6882 4.67126 96.6704C4.67126 96.6411 4.73657 96.4325 5.07057 95.397C5.13264 95.2046 5.2148 94.9265 5.25321 94.7789C5.35417 94.3904 5.47279 94.1346 5.49629 94.2545C5.50618 94.3057 5.57311 94.5261 5.64473 94.744ZM32.8852 99.1045V100.06H33.8645H34.844V99.1045V98.1485H33.8645H32.8852V99.1045Z" fill="#ED8245"/>
</svg>
