<svg width="56" height="73" viewBox="0 0 56 73" fill="none" xmlns="http://www.w3.org/2000/svg">
<path fill-rule="evenodd" clip-rule="evenodd" d="M46.4041 0.430713C45.6761 1.08842 43.6845 5.87061 42.6919 9.34473C41.7348 12.6941 41.663 13.5975 41.7625 21.0466C41.7893 23.0486 41.8163 25.2167 41.8225 25.8645L41.8338 27.0426H39.7733H37.713V28.9603C37.713 30.2135 37.7256 30.912 37.7496 30.9763C37.7697 31.0303 38.5395 31.8288 39.46 32.7508L41.1339 34.4272V34.6387V34.8502L40.7708 34.8061C37.8462 34.4508 32.5944 32.8076 29.6455 31.3254C26.8128 29.9013 22.7984 27.3159 21.3287 25.9693C21.146 25.8018 21.0216 25.7145 20.9614 25.7111C20.7928 25.7017 20.6271 25.721 20.4163 25.7743C19.7143 25.9521 19.7495 25.9642 18.8412 25.2355C17.177 23.9006 16.0488 22.8509 15.7978 22.4044L15.7224 22.2703L16.4462 22.0041C16.8444 21.8576 18.6779 21.2488 20.5211 20.6511C22.3642 20.0534 23.8824 19.5543 23.8949 19.5423C23.9072 19.5301 23.4988 19.1687 22.9873 18.7392L22.057 17.9582L21.5858 17.9816C21.3265 17.9945 20.7296 18.0351 20.2593 18.0718C19.789 18.1085 19.0506 18.1634 18.6186 18.1939C18.1867 18.2242 17.1499 18.3029 16.3147 18.3686C14.1014 18.5428 12.8339 18.6275 12.3331 18.6346C12.0522 18.6386 12.1601 18.7273 10.3073 16.9692C7.03067 13.8604 5.7438 12.7426 4.48603 11.9129C2.468 10.5819 0.632891 10.6509 0.432225 12.0656C0.309441 12.9307 0.68389 13.7863 1.79241 15.1742C2.31514 15.8287 4.1228 17.6394 5.1727 18.5602C5.35868 18.7234 5.80159 19.1483 6.15677 19.5045C6.51196 19.8605 7.15761 20.486 7.59151 20.8944C8.41899 21.6728 8.50934 21.7843 8.54482 22.0684C8.60386 22.5425 8.9262 26.911 8.96597 27.7757C8.98496 28.188 9.14155 30.3661 9.18174 30.7759L9.20045 30.966L9.72942 31.4937C10.5139 32.2765 11.3174 32.9651 11.4065 32.9308C11.467 32.9077 11.4366 33.0496 11.8442 30.8825C12.5006 27.393 12.5426 27.165 12.5989 26.7808C12.6636 26.3392 12.8719 25.3363 12.9394 25.1413L12.9851 25.0092L13.4544 25.4061C13.7124 25.6245 14.4498 26.258 15.093 26.8138C16.4335 27.9725 16.5432 28.0595 17.6035 28.805C18.034 29.1075 18.5209 29.4583 18.6857 29.5841C19.6099 30.2909 23.0186 32.2862 24.1281 32.7699C24.3138 32.8509 24.8034 33.0809 25.2161 33.281C25.6289 33.4812 26.1708 33.7208 26.4204 33.8132C26.67 33.9058 27.1569 34.0948 27.5026 34.2334C28.5828 34.6663 28.9347 34.7874 30.1381 35.1408C33.846 36.2299 37.2007 36.8487 40.3918 37.0323L41.1339 37.075V39.2776V41.4804L39.8336 41.4786C39.1184 41.4776 38.5049 41.4886 38.4702 41.5027C38.4105 41.5272 38.4077 41.6123 38.4179 43.1084C38.4302 44.9251 38.3961 44.7416 38.8078 45.2073C38.946 45.3635 39.3433 45.8289 39.6909 46.2418C40.0384 46.6545 40.483 47.1729 40.6788 47.3937C40.8748 47.6144 41.0807 47.8736 41.1364 47.9696L41.238 48.1441L41.2383 49.811L41.2385 51.4778H43.141H45.0435V49.7871C45.0435 48.8572 45.0295 48.06 45.0123 48.0155C44.9736 47.9154 44.4977 47.3858 43.4552 46.2828C43.0136 45.8156 42.5152 45.2816 42.3475 45.0959L42.0426 44.7581L43.5392 44.7491L45.0358 44.74L45.0564 44.3302C45.0863 43.7321 45.0584 33.9956 45.0263 33.8398C45.0029 33.726 44.9065 33.6219 44.332 33.0892C43.6025 32.413 42.3964 31.2845 41.8909 30.8054L41.5702 30.5015L43.3069 30.5L45.0435 30.4986L45.044 21.1171C45.0446 11.2993 45.0465 11.1628 45.203 10.0777C45.518 7.89405 46.1126 5.89542 46.5285 5.62283C46.9032 5.3774 47.4793 7.13102 47.8141 9.53666C47.9965 10.8464 47.9904 10.4294 47.9782 20.7855L47.9668 30.4637H49.5812H51.1955L49.5944 32.0913L47.9932 33.7188L47.9839 39.2123L47.9746 44.7057L48.6122 44.7059C48.963 44.7059 49.759 44.7163 50.3814 44.729L51.513 44.7522L51.2363 45.017C51.084 45.1626 50.6055 45.6117 50.1727 46.0148C49.74 46.4181 49.0858 47.0278 48.7189 47.3701C48.352 47.7123 48.0345 48.0343 48.0134 48.0858C47.9858 48.1528 47.9777 50.413 47.9842 56.1379L47.9932 64.0968L49.5815 64.1076C50.4549 64.1136 51.4588 64.1079 51.8124 64.0949L52.455 64.0713L52.432 61.4311C52.3535 52.4281 52.3659 49.1111 52.4812 48.2825C52.528 47.9451 52.42 48.0679 54.1843 46.3474C54.9016 45.648 55.555 44.9939 55.6365 44.8939L55.7845 44.7123L55.8095 43.9272C55.8232 43.4955 55.8232 42.7793 55.8095 42.3357L55.7845 41.5292H53.7826H51.7806L51.7822 37.7854C51.7834 34.9289 51.7938 34.0182 51.8262 33.9424C51.8495 33.8877 52.536 33.1775 53.3517 32.364L54.835 30.8851L54.8524 28.9814L54.8699 27.0775H53.046H51.2221L51.2173 22.7927C51.2148 20.436 51.216 17.471 51.2201 16.204C51.2295 13.3529 51.1857 12.6088 50.9379 11.4042C50.5412 9.47541 49.8117 7.27916 48.5803 4.30602C48.3406 3.72703 47.9883 2.86851 47.7976 2.39816C47.0331 0.512337 46.7525 0.115993 46.4041 0.430713ZM23.7151 25.2294C23.6479 25.2456 23.2513 25.3097 22.8337 25.3715C22.4162 25.4333 22.0744 25.4931 22.0744 25.5044C22.0744 25.5421 22.6432 25.9764 23.6054 26.6737L24.5603 27.3657L25.1238 27.0935C25.9301 26.7042 25.9358 26.6951 25.5652 26.3871C25.4405 26.2833 25.0991 25.9876 24.8069 25.73C24.1677 25.1665 24.1009 25.1359 23.7151 25.2294ZM22.585 28.6952C22.9459 28.9398 25.2099 30.3615 25.6352 30.6107C29.4699 32.8559 34.9818 34.6878 40.2089 35.4544C40.612 35.5136 40.9851 35.5707 41.0379 35.5812L41.1339 35.6005V36.2138V36.8271L40.8634 36.8061C40.7146 36.7945 40.1766 36.7064 39.6677 36.6102C39.159 36.5142 38.5386 36.4029 38.289 36.363C34.9658 35.8326 29.6546 34.1393 26.9065 32.7341C25.0373 31.7784 24.4938 31.4616 23.3137 30.6402C22.8529 30.3194 22.2639 29.9125 22.0046 29.736C21.3012 29.2568 21.2539 29.2056 21.3626 29.0388C21.4497 28.9046 21.4938 28.8743 21.8793 28.6816C22.3016 28.4707 22.2524 28.4697 22.585 28.6952ZM19.5087 34.0043C19.3167 34.0644 15.0356 36.9021 14.3251 37.4403C11.8619 39.3062 10.6513 40.5269 9.3698 42.4369C8.54025 43.673 7.74728 45.4243 7.57946 46.3902C7.52874 46.6829 7.51474 51.4163 7.56463 51.4662C7.59733 51.499 10.6294 51.528 10.754 51.4967L10.8343 51.4764L10.8381 50.2117C10.8504 46.1568 10.8619 46.0083 11.2178 45.2993C11.9509 43.8388 14.6399 40.9086 16.245 39.8213C17.3193 39.0934 19.3322 38.0447 19.6788 38.032C20.0459 38.0187 22.5451 39.6494 23.8548 40.7567C25.661 42.2839 27.2667 44.5293 27.9064 46.4225L27.9808 46.6431L27.9756 55.3961L27.9703 64.1492H29.665H31.3599L31.3686 56.0244C31.3798 45.5302 31.4089 46.6445 31.101 45.7773C30.2699 43.4374 29.3725 41.9266 27.6752 40.0107C25.9473 38.0603 23.6713 36.2876 20.3815 34.3296C19.7628 33.9613 19.7097 33.9415 19.5087 34.0043ZM34.8506 48.4932V50.1164H36.5959H38.3414V48.4932V46.8701H36.5959H34.8506V48.4932ZM21.2367 57.0979V60.7283H16.0704H10.9042V57.1154V53.5024H9.19131H7.47857L7.50573 53.581C7.5207 53.6242 7.5279 56.0254 7.52167 58.9172C7.51557 61.8088 7.52111 64.2083 7.53414 64.2493L7.5577 64.3237H16.0204H24.4831V58.8956V53.4676H22.8599H21.2367V57.0979ZM14.4996 55.4183V57.1246L14.5781 57.1457C14.6214 57.1573 15.4146 57.1669 16.3409 57.1672L18.0252 57.1677V55.4398V53.7119H16.2625H14.4996V55.4183ZM34.8506 55.6144V57.4819H38.3239H41.7972V59.0003V60.5188H38.254H34.7109L34.7113 62.1857C34.7115 63.1024 34.7214 63.9114 34.7334 63.9833L34.755 64.1143H39.8993H45.0435V58.9305V53.7468H39.947H34.8506V55.6144Z" fill="#048C2C"/>
<path d="M10.6703 71.1904H8.89328L8.55545 72.1908H7.47778L9.30881 67.3353H10.248L12.0891 72.1908H11.0115L10.6703 71.1904ZM9.16692 70.38H10.3966L9.77839 68.5625L9.16692 70.38Z" fill="#048C2C"/>
<path d="M13.6229 71.3871H16.1025V72.1908H12.356V71.6039L14.7884 68.1456H12.3594V67.3353H16.0485V67.9088L13.6229 71.3871Z" fill="#048C2C"/>
<path d="M20.697 69.8731C20.697 70.3511 20.6114 70.7702 20.4402 71.1303C20.2691 71.4905 20.0236 71.7684 19.7038 71.964C19.3862 72.1597 19.0214 72.2575 18.6092 72.2575C18.2016 72.2575 17.8378 72.1608 17.518 71.9674C17.1982 71.774 16.9505 71.4983 16.7748 71.1403C16.5991 70.7802 16.5102 70.3666 16.5079 69.8998V69.6597C16.5079 69.1817 16.5946 68.7615 16.768 68.3991C16.9437 68.0345 17.1903 67.7554 17.5079 67.562C17.8277 67.3664 18.1925 67.2686 18.6024 67.2686C19.0123 67.2686 19.3761 67.3664 19.6936 67.562C20.0134 67.7554 20.2601 68.0345 20.4335 68.3991C20.6091 68.7615 20.697 69.1805 20.697 69.6563V69.8731ZM19.67 69.653C19.67 69.1439 19.5776 68.757 19.393 68.4924C19.2083 68.2279 18.9448 68.0956 18.6024 68.0956C18.2624 68.0956 18 68.2268 17.8153 68.4891C17.6306 68.7492 17.5372 69.1316 17.5349 69.6363V69.8731C17.5349 70.3689 17.6272 70.7535 17.8119 71.0269C17.9966 71.3004 18.2624 71.4371 18.6092 71.4371C18.9493 71.4371 19.2105 71.306 19.393 71.0436C19.5754 70.7791 19.6677 70.3944 19.67 69.8898V69.653Z" fill="#048C2C"/>
<path d="M25.4333 72.1908H24.4198L22.4469 68.996V72.1908H21.4334V67.3353H22.4469L24.4232 70.5367V67.3353H25.4333V72.1908Z" fill="#048C2C"/>
<path d="M31.5412 68.1456H30.0345V72.1908H29.021V68.1456H27.5346V67.3353H31.5412V68.1456Z" fill="#048C2C"/>
<path d="M33.9432 70.4133H33.1358V72.1908H32.1223V67.3353H33.95C34.531 67.3353 34.9792 67.4631 35.2945 67.7188C35.6098 67.9744 35.7675 68.3357 35.7675 68.8026C35.7675 69.1339 35.6943 69.4106 35.5479 69.633C35.4037 69.8531 35.1841 70.0287 34.8891 70.1599L35.9533 72.1441V72.1908H34.8655L33.9432 70.4133ZM33.1358 69.603H33.9533C34.2078 69.603 34.4049 69.5396 34.5445 69.4129C34.6842 69.2839 34.754 69.1072 34.754 68.8826C34.754 68.6536 34.6875 68.4736 34.5547 68.3424C34.424 68.2112 34.2225 68.1456 33.95 68.1456H33.1358V69.603Z" fill="#048C2C"/>
<path d="M39.318 71.1904H37.5411L37.2032 72.1908H36.1256L37.9566 67.3353H38.8957L40.7369 72.1908H39.6592L39.318 71.1904ZM37.8147 70.38H39.0444L38.4262 68.5625L37.8147 70.38Z" fill="#048C2C"/>
<path d="M42.7504 70.9869L43.8652 67.3353H44.9935L43.2808 72.1908H42.2234L40.5173 67.3353H41.6423L42.7504 70.9869Z" fill="#048C2C"/>
<path d="M48.4191 70.0865H46.4732V71.3871H48.7569V72.1908H45.4597V67.3353H48.7502V68.1456H46.4732V69.3028H48.4191V70.0865Z" fill="#048C2C"/>
<path d="M50.365 71.3871H52.517V72.1908H49.3515V67.3353H50.365V71.3871Z" fill="#048C2C"/>
</svg>
