<svg width="51" height="51" viewBox="0 0 51 51" fill="none" xmlns="http://www.w3.org/2000/svg">
<circle cx="25.5" cy="25.5" r="25" fill="white" stroke="#B7B7B7"/>
<g clip-path="url(#clip0)">
<path d="M34.9804 21.8801C34.9336 20.8174 34.7617 20.0868 34.5156 19.4537C34.2616 18.7818 33.8709 18.1801 33.359 17.68C32.8589 17.1721 32.2533 16.7774 31.5891 16.5274C30.9524 16.2813 30.2256 16.1094 29.163 16.0626C28.0924 16.0118 27.7525 16 25.0371 16C22.3217 16 21.9819 16.0118 20.9152 16.0586C19.8525 16.1055 19.122 16.2775 18.489 16.5235C17.8169 16.7774 17.2153 17.1681 16.7152 17.68C16.2073 18.1801 15.8127 18.7857 15.5626 19.4499C15.3164 20.0868 15.1446 20.8134 15.0977 21.8761C15.0469 22.9467 15.0352 23.2866 15.0352 26.002C15.0352 28.7173 15.0469 29.0572 15.0938 30.1239C15.1406 31.1865 15.3126 31.9171 15.5588 32.5502C15.8127 33.2221 16.2073 33.8238 16.7152 34.3239C17.2153 34.8318 17.8209 35.2265 18.4851 35.4765C19.122 35.7226 19.8486 35.8945 20.9114 35.9413C21.9779 35.9883 22.3179 35.9999 25.0333 35.9999C27.7487 35.9999 28.0885 35.9883 29.1552 35.9413C30.2179 35.8945 30.9484 35.7226 31.5813 35.4765C32.9255 34.9568 33.9881 33.8941 34.5078 32.5502C34.7538 31.9133 34.9258 31.1865 34.9727 30.1239C35.0195 29.0572 35.0313 28.7173 35.0313 26.002C35.0313 23.2866 35.0273 22.9467 34.9804 21.8801ZM33.1794 30.0457C33.1364 31.0225 32.9723 31.5499 32.8356 31.9015C32.4995 32.7728 31.808 33.4643 30.9367 33.8004C30.5851 33.9372 30.0538 34.1012 29.0809 34.1441C28.026 34.1911 27.7096 34.2027 25.0411 34.2027C22.3726 34.2027 22.0522 34.1911 21.0011 34.1441C20.0244 34.1012 19.4969 33.9372 19.1453 33.8004C18.7117 33.6402 18.317 33.3862 17.9967 33.0541C17.6646 32.7298 17.4106 32.3391 17.2504 31.9055C17.1137 31.5539 16.9496 31.0225 16.9067 30.0497C16.8597 28.9948 16.8481 28.6783 16.8481 26.0097C16.8481 23.3412 16.8597 23.0209 16.9067 21.9699C16.9496 20.9932 17.1137 20.4657 17.2504 20.1141C17.4106 19.6804 17.6646 19.2859 18.0007 18.9654C18.3248 18.6333 18.7155 18.3793 19.1493 18.2192C19.5009 18.0825 20.0323 17.9184 21.0051 17.8754C22.06 17.8285 22.3765 17.8168 25.0449 17.8168C27.7174 17.8168 28.0338 17.8285 29.0848 17.8754C30.0616 17.9184 30.589 18.0825 30.9407 18.2192C31.3742 18.3793 31.7689 18.6333 32.0893 18.9654C32.4214 19.2897 32.6753 19.6804 32.8356 20.1141C32.9723 20.4657 33.1364 20.997 33.1794 21.9699C33.2263 23.0248 33.238 23.3412 33.238 26.0097C33.238 28.6783 33.2263 28.9908 33.1794 30.0457Z" fill="#B7B7B7"/>
<path d="M25.0371 20.8643C22.2007 20.8643 19.8994 23.1654 19.8994 26.002C19.8994 28.8385 22.2007 31.1397 25.0371 31.1397C27.8737 31.1397 30.1749 28.8385 30.1749 26.002C30.1749 23.1654 27.8737 20.8643 25.0371 20.8643ZM25.0371 29.3347C23.197 29.3347 21.7044 27.8422 21.7044 26.002C21.7044 24.1617 23.197 22.6693 25.0371 22.6693C26.8774 22.6693 28.3698 24.1617 28.3698 26.002C28.3698 27.8422 26.8774 29.3347 25.0371 29.3347Z" fill="#B7B7B7"/>
<path d="M31.5777 20.6611C31.5777 21.3235 31.0407 21.8605 30.3781 21.8605C29.7158 21.8605 29.1787 21.3235 29.1787 20.6611C29.1787 19.9986 29.7158 19.4617 30.3781 19.4617C31.0407 19.4617 31.5777 19.9986 31.5777 20.6611Z" fill="#B7B7B7"/>
</g>
<defs>
<clipPath id="clip0">
<rect width="20" height="20" fill="white" transform="translate(15 16)"/>
</clipPath>
</defs>
</svg>
