<svg width="51" height="51" viewBox="0 0 51 51" fill="none" xmlns="http://www.w3.org/2000/svg">
<circle cx="25.5" cy="25.5" r="25.5" fill="#1FBCFF"/>
<g clip-path="url(#clip0)">
<path d="M15.3533 25.643L19.9617 27.363L21.7454 33.0994C21.8595 33.4668 22.3088 33.6026 22.607 33.3588L25.1758 31.2647C25.4451 31.0453 25.8286 31.0344 26.11 31.2386L30.7432 34.6024C31.0622 34.8343 31.5141 34.6595 31.5941 34.274L34.9882 17.948C35.0755 17.5269 34.6618 17.1756 34.2609 17.3307L15.3479 24.6268C14.8811 24.8068 14.8852 25.4676 15.3533 25.643ZM21.4579 26.4474L30.4645 20.9002C30.6263 20.8008 30.7929 21.0197 30.6539 21.1486L23.2209 28.058C22.9596 28.3012 22.7911 28.6266 22.7433 28.9799L22.4901 30.8563C22.4566 31.1068 22.1047 31.1317 22.0355 30.8892L21.0617 27.4676C20.9502 27.0773 21.1127 26.6604 21.4579 26.4474Z" fill="white"/>
</g>
<defs>
<clipPath id="clip0">
<rect width="20" height="20" fill="white" transform="translate(15 16)"/>
</clipPath>
</defs>
</svg>
